<?xml version="1.0" encoding="utf-8"?>
<!-- Generator: Adobe Illustrator 18.0.0, SVG Export Plug-In . SVG Version: 6.00 Build 0)  -->
<!DOCTYPE svg PUBLIC "-//W3C//DTD SVG 1.1//EN" "http://www.w3.org/Graphics/SVG/1.1/DTD/svg11.dtd">
<svg version="1.1" id="Layer_1" xmlns="http://www.w3.org/2000/svg" xmlns:xlink="http://www.w3.org/1999/xlink" x="0px" y="0px"
	 viewBox="0 0 1400 980" enable-background="new 0 0 1400 980" xml:space="preserve">
<g>
	<rect fill="#2B293C" width="1400" height="980"/>
	<path fill="#333144" d="M1400,251.2c-59.1,8.5-119.9,21.6-175.8,1.9c-29-10.2-54.8-28.8-84.7-35.9c-42.8-10.2-87.5,4.6-131.5,2.8
		c-40.8-1.7-79.5-17.7-119.3-26.9c-46.6-10.8-94.8-12.4-142.7-13.9c-89.4-2.9-180.8-5.5-266.3,20.9c-45.4,14-88.1,35.9-134.1,47.8
		c-72.8,18.9-152.1,11.2-220-21.2c-22-10.5-43-23.6-66.2-31.3C40.2,189,20.2,186.6,0,187v112c16.7,1.6,33.2,4.1,49.5,8
		c48.8,11.7,97,35.5,146.6,28.4c55.5-8,100.5-53.4,156.2-59.6c55.8-6.2,119.3,26.5,164.6-6.7c19-13.9,30.7-37.7,52.5-46.5
		c21.8-8.8,46.2,0.1,69.6,3.1c52,6.6,112.4-15,152.6,18.6c17,14.2,26.3,35.8,43.3,49.9c27.5,22.8,68.2,20.5,101.9,9
		s64.7-30.9,99.2-39.6c80-20.1,161,19.6,238.9,46.6c26.7,9.2,54.5,17.1,82.7,15.3c14.3-0.9,28.3-4.2,42.2-7.6V251.2z"/>
	<path opacity="0.67" fill="#FFFFFF" d="M793.1,200.1c0,0,155.9,54.3,209.8,192.6c53.9,138.2-127.6,268.9-127.6,268.9l282.1,12.8
		c0,0,49.3-175.5-86.6-323.5C966.4,237.1,799,184.9,799,184.9L793.1,200.1z"/>
	<g>
		<path fill="#CBCCCC" d="M768.7,154.6L605.4,83.2c-18.1-7.3-33.4-1.8-41.1,2.1c-3.3,1.7-5,5.5-4,9.2c2.3,8.3,8.7,23.2,26.3,31.6
			l163.3,71.4L768.7,154.6z"/>
		<path fill="#CBCCCC" d="M785.2,218.7l-141.5-61.9c-14.3-5.7-25.4,2.9-25.4,2.9s1.2,14.1,15.1,20.7l141.5,61.9l3.7,8.4l12.8,5.6
			l7.7-17.5l7.7-17.5l-12.8-5.6L785.2,218.7z"/>
		<path fill="#CBCCCC" d="M808.2,166.1l-141.5-61.9c-13.9-6.6-15.1-20.7-15.1-20.7s11.1-8.7,25.4-2.9l141.5,61.9l8.7-3l12.8,5.6
			l-7.7,17.5l-7.7,17.5l-12.8-5.6L808.2,166.1z"/>
		<path fill="#B3B4B5" d="M840,145.1l-12.8-5.6l-8.7,3L677,80.7c-14.3-5.7-25.4,2.9-25.4,2.9l180.7,79L840,145.1z"/>
		<path fill="#B3B4B5" d="M791.3,256.3l-12.8-5.6l-3.7-8.4l-141.5-61.9c-13.9-6.6-15.1-20.7-15.1-20.7l180.7,79L791.3,256.3z"/>
		<polygon fill="#A7A9AA" points="727.7,283.3 768.8,209.1 790,160.6 816.6,80.1 		"/>
		<path fill="#E9E8DB" d="M780.3,165.8L626.9,98.7c-13.8-5.5-25.4-1.4-31.2,1.6c-2.5,1.3-3.8,4.2-3,7c1.7,6.3,6.6,17.7,20,24
			l153.4,67.1l2.8,10.6l17.7,7.7l10.6-24.2l10.6-24.2l-17.7-7.7L780.3,165.8z"/>
		<path fill="#A7A9AA" d="M651.2,117.6l-27-11.8c-10.2-4.1-18.9-1.5-23.8,0.8c1.6,5.1,5.7,13.3,15.4,17.9l27.3,11.9L651.2,117.6z"/>
		<path fill="#E6E6E5" d="M699.8,169.5l7.1,96.3c0.4,5.4,3.7,10.1,8.7,12.3l12.1,5.3L765,198L699.8,169.5z"/>
		<path fill="#E6E6E5" d="M714.1,136.9l75.5-60.1c4.2-3.4,10-4.1,14.9-1.9l12.1,5.3l-37.3,85.3L714.1,136.9z"/>
		
			<rect x="644.8" y="131.7" transform="matrix(0.4007 -0.9162 0.9162 0.4007 274.2931 685.8715)" fill="#B3B4B5" width="33.2" height="3.1"/>
		
			<rect x="672.2" y="143.7" transform="matrix(0.4007 -0.9162 0.9162 0.4007 279.7326 718.1487)" fill="#B3B4B5" width="33.2" height="3.1"/>
		
			<rect x="744.2" y="175.1" transform="matrix(0.4007 -0.9162 0.9162 0.4007 294.0166 802.906)" fill="#B3B4B5" width="33.2" height="3.1"/>
		
			<rect x="766.2" y="188.1" transform="matrix(0.4007 -0.9162 0.9162 0.4007 299.9033 837.8361)" fill="#B3B4B5" width="48.5" height="3.1"/>
		<path fill="#CBCCCC" d="M709.3,237.9l20.5,9c2.7,1.2,5.8,0,6.9-2.7l5.8-13.2c4.8-10.9-0.2-23.7-11.1-28.5l-25.5-11.2L709.3,237.9z
			"/>
		<path fill="#CBCCCC" d="M770.7,97.4l20.5,9c2.7,1.2,3.9,4.3,2.7,6.9l-5.8,13.2c-4.8,10.9-17.5,15.9-28.5,11.1l-25.5-11.2
			L770.7,97.4z"/>
		
			<rect x="649.4" y="169.7" transform="matrix(0.4007 -0.9162 0.9162 0.4007 232.8783 714.0089)" fill="#A7A9AA" width="25.7" height="18.5"/>
		
			<rect x="653.2" y="175.6" transform="matrix(0.4007 -0.9162 0.9162 0.4007 225.9476 715.1769)" fill="#949698" width="12.9" height="18.5"/>
		
			<rect x="682.7" y="93.5" transform="matrix(-0.4007 0.9162 -0.9162 -0.4007 1068.4634 -493.2618)" fill="#A7A9AA" width="25.7" height="18.5"/>
		
			<rect x="691.7" y="87.7" transform="matrix(-0.4007 0.9162 -0.9162 -0.4007 1066.6776 -503.8576)" fill="#949698" width="12.9" height="18.5"/>
	</g>
	<path fill="#9A371B" d="M1400,581.5c-52-3.1-103.6-12.2-153.5-27.1c-18.5-5.5-37.3-11.9-56.5-10.4c-43.5,3.3-75.6,45-118.6,52.5
		c-17.4,3-35.3,0.1-52.9,2.1c-22.1,2.5-42.5,12.7-63,21.4c-154.3,65.4-335.6,50.5-488.2-18.8c-54-24.5-111-56.3-168.9-43.7
		c-38.3,8.3-72.4,35.8-111.6,34.6c-22.9-0.7-44.4-11.3-67.1-13.7c-33.3-3.6-66,10.3-99.4,11.7c-6.7,0.3-13.5,0.1-20.3-0.2v244.4
		c22.5,4.9,46.7,5.3,69.9,5.3c263,0.4,526.1,0.8,789.1,1.3c131.1,0.2,262.2,0.4,393.1-6.2c49.4-2.5,99.1-6.1,147.9-13.8V581.5z"/>
	<path fill="#BC4527" d="M1400,649.4c-78.6,0.6-157.3,1.3-235.9,1.9c-30.7,0.2-61.9,0.4-91.4-8.1c-31-9-58.8-27.3-90.1-34.9
		c-45.5-11-94,1.6-139.7-8.4c-59.8-13.2-106.8-63.2-167.1-73.9c-85.2-15.2-162.9,51.5-248.5,64.3c-41.8,6.3-84.6-0.6-126.6,4.8
		c-51.6,6.7-99.5,31.7-151.2,37.8c-50,5.9-99.7-6.2-149.5-15.6V980h1400V649.4z"/>
	<path fill="#9A371B" d="M556,630c-24,9.4-56.3,12.9-81.6,8.4c-26.1-4.6-48.2-22.3-74.5-26.8c-39.3-6.7-77.2,14.9-115.8,24.8
		c-44,11.3-89.5,2.3-133.3,11.3c-10.1,2.1-22.2,9.8-19,19.6c78.2,15.6,157.3-26.7,236.9-21.7c46.4,2.9,90.7,21.8,137.1,23.6
		c23.7,0.9,47.7-2.7,70.8,2.4c29.8,6.5,55.1,26.8,84.8,33.4c36.5,8.2,73.9-5.1,110.3-13.4c97.4-22.2,197.9-9.6,296.7-13.1
		c25.3-0.9,50.3-4.3,75.6-4.4c27.2-0.1,54.5,1.8,81.7,2.1c12.9,0.2,25.7,0,38.6-0.2c39.8-0.5,79.5-1.1,119.3-1.6
		c3.2,0,6.6-0.1,9.3-1.9s4.2-5.8,2.2-8.3c-62.2,1.1-124.3,2.3-186.5,3.4c-5.2,0.1-10.4,0.2-15.6-0.4c-5-0.6-9.9-1.8-14.9-2.8
		c-6.7-1.3-13.5-2.1-20.3-2.7c-19.3-1.7-38.7-2.1-58-1.1c-18,0.9-36.7-3.5-54.9-4.3c-38.5-1.7-77.1,0.4-115.7-0.1
		c-58-0.7-118.4-7.7-167.4-38.7c-10.1-6.4-19.7-13.8-30.7-18.5c-17.6-7.6-37.5-7.8-56.7-7.8c-17.3-0.1-34.9-0.1-51.4,4.9
		C599.2,603.6,579.4,620.8,556,630z"/>
	<path fill="#D85539" d="M1400,891.7c-28.5-0.1-56.9-0.2-85.4-0.4c-24.1-0.1-48.8-0.1-71.4,8.2c-23.4,8.6-42.9,25.4-65.5,35.8
		c-34.4,15.8-73.7,15.6-111.6,15.2c-66-0.8-131.9-1.5-197.9-2.3c-27.5-0.3-55.7-0.7-81.6-10c-67.1-23.8-103.9-99.7-169.7-127
		c-48.4-20.1-103.6-10.2-154.6,2c-75.4,18-149.8,40.4-222.6,66.9c-32.3,11.8-64.8,24.5-98.9,28.8c-48.8,6.2-99.6-5.6-140.7-32.5V980
		h1400V891.7z"/>
	<ellipse fill="#9A371B" cx="419.7" cy="906.3" rx="204.3" ry="30.5"/>
	<path fill="#AE3F22" d="M1400,686.1c-7.5-0.2-15-0.4-22.5-0.5c-89.6-1.6-179.3,2.3-268.8,6.8c-117.3,5.8-235,12.5-350,36
		c-53.4,10.9-107.5,25.4-161.5,18.4c-76.5-9.9-141.9-61.5-217.6-76.3c-99.4-19.4-199.6,27-300.8,28.3c-26.2,0.3-52.5-2.3-78.8-5.1
		v37.4c73.8-11,148.8-31,222.9-26.2c35,2.2,69.7,10,104.7,7.7c23.4-1.6,47-7.6,70-3c16.4,3.3,31.2,11.8,46.4,19
		c75.7,36.2,162.8,40.5,246.5,34.4c83.7-6.1,166.7-21.9,250.6-23.5c85.5-1.6,171.9,11.4,255.9-4.3c26.7-5,52.7-12.8,79.3-18.2
		c40.7-8.2,82.1-10.7,123.7-10.5V686.1z"/>
	<g opacity="0.71">
		<circle fill="#E8A04D" cx="81.9" cy="430.5" r="45.5"/>
		<g>
			<g>
				<g>
					<path fill="#F2BD7E" d="M84.2,466.3c1.1-0.2,2.2-0.6,3.2-1.1c-2.3-0.4-4.6,0.5-7,0.7c-0.9,0.1-1.7,0-2.6,0
						c-3-0.2-6-0.3-9.1-0.3c-3.2,0.1-6.5,0.2-9.7,0.3c-2,0-4.1,0-6.1-0.1c7.9,6.5,17.9,10.4,28.9,10.4c9.3,0,17.9-2.8,25.1-7.6
						c-0.8,0.6-3.5,0.2-4.5,0.3c-1.5,0.1-3,0.2-4.5,0.3c-2.9,0.2-5.7,0.9-8.6,1c-0.9,0-1.8,0-2.7,0c-2.8,0.2-5.5,1.5-8.3,1.3
						c-2.5-0.1-4.9-1.5-7.4-2c-0.5-0.1-1-0.2-1.5-0.3c-1.6-0.2-3.3-0.5-4.9-0.7c-0.1-0.4,0.3-0.9,0.7-1c0.4-0.2,0.9-0.1,1.3-0.1
						c4.2,0.2,8.4-1,12.6-1c1.2,0,2.5,0.1,3.7,0.1C83.5,466.4,83.9,466.4,84.2,466.3z"/>
				</g>
				<g>
					<path fill="#F2BD7E" d="M76.4,396.8c1,0.2,2.1,0.5,3.1,1c-3.2,0.7-6.6-0.2-9.9,0.5c-1.4,0.3-2.7,0.9-4,1.1c-1,0.1-2,0.1-3,0.1
						c-1.3,0-2.6,0.1-3.9,0.4c-0.6,0.1-1.2,0.3-1.7,0.7c-0.5,0.4-0.7,1.1-0.5,1.6c2.5,0.5,5.1,0.4,7.6,0.4c3.5-0.1,7-0.2,10.5-0.3
						c1.3,0,2.5-0.1,3.8,0.1c2.2,0.4,4.3,1.5,6.5,1.7c0.9,0.1,1.7,0,2.6,0c3.1,0.1,6.1,1.4,9.1,1c-1-0.6-2.2-0.9-3.5-0.9
						c-0.5,0-1,0.1-1.5,0s-1-0.5-1-1c-0.1-0.8,6.7-0.1,7.3,0c2.7,0.5,5.5,1.1,8.2,1.7c5.4,1.3,10.8,2.8,16.1,4.5
						c-1.1-2-2.3-3.9-3.6-5.8c-0.4-0.6-2.2-1-2.9-1.3c-1-0.4-2-0.8-2.9-1.1c-2-0.7-4-1.4-6-1.9c-3.9-1-8.3-1-12-2.7
						c-0.5-0.2-1-0.5-1.6-0.8c-1.5-0.7-3.2-0.9-4.8-0.8c-0.4,0-0.8,0.1-1.1,0c-0.4-0.1-0.7-0.3-0.8-0.7c-0.1-0.6,0.6-1.1,1.2-1.2
						c0.7-0.2,1.5-0.2,2.2-0.2c1.6,0,3.1,0,4.7,0c0.4,0,0.9,0,1.3,0.1c1.2,0.3,2.4,1.4,3.6,1c0.1-0.9-0.9-1.6-1.8-1.9
						c-2.7-0.9-5.3-0.5-8-0.7c-2.6-0.1-5.2,0-7.8,0.2c-2,0.1-3.8,0.5-5.8,0.6c-2,0.1-4,0-5.9,0.5c-1.1,0.2-2.4,0.6-3.2-0.2
						c-0.2-0.7,0.5-1.2,1.2-1.4c1.7-0.6,3.5-0.8,5.3-0.6c1.1,0.1,2.3,0.3,3.1-0.5c0.1-0.2,0.3-0.3,0.5-0.4c0.2-0.1,0.4-0.1,0.6-0.1
						c1.5,0,3.1,0,4.6,0c0.1-0.3,0-0.6-0.1-0.9c-2.7,0.1-5.3,0.1-8,0.2c-1.6,0-3.3,0.1-4.8,0.5c-3.4,0.9-6.9,1.3-10.4,2
						c-3.9,2.3-7.5,5.2-10.5,8.5c0.6-0.6,3-0.8,3.8-1c1.4-0.3,2.7-0.6,4.1-0.9c2.7-0.5,5.5-1,8.2-1.2c2.7-0.3,5.4-0.5,8.1-0.3
						C73.8,396.5,75.1,396.5,76.4,396.8z"/>
				</g>
				<g>
					<path fill="#F2BD7E" d="M106.6,415.6c-3.8,1-8.5,2.5-11.2-0.4c-0.9-1-1.4-2.3-2.4-3.2c-2.3-2-5.7-0.6-8.6,0.4
						c-3,1.1-6.1,1.6-9.3,1.9c-2.8,0.3-5.8,0.1-8.6,0.8c-2.9,0.8-6.5,0.3-9.5,0.2c-3.3-0.1-6.6-0.2-10-0.4c-0.3,0-0.6,0-0.8-0.2
						c-0.2-0.2-0.4-0.5-0.2-0.8c0.1-0.2,0.3-0.2,0.5-0.3c6-1.6,12.2-2.2,18.4-2c0.3-0.2,0.2-0.7-0.1-0.9c-0.3-0.2-0.6-0.3-1-0.3
						c-4-0.4-8-0.8-12-0.9c-1.8-0.1-3.7-0.2-5.5,0c-0.7,0.1-5,0-5.2,0.5c-2.4,4.7-4,9.9-4.6,15.4c2.7-0.7,5.4-1.1,8.2-0.9
						c3.3,0.2,6.5,1.1,9.8,1.2c10.5,0.2,20.8-8.1,30.7-4.6c1.8,0.6,3.4,1.6,5.2,2.2c7,2.5,14.6-0.8,22-2.1c4.6-0.8,9.3-0.8,14-0.3
						c-0.4-1.8-0.9-3.6-1.5-5.3C118.9,414.3,112.7,414,106.6,415.6z"/>
				</g>
				<g>
					<path fill="#F2BD7E" d="M101,450.3c-3.2-0.3-6.7-0.5-9.5,1.1c-1.4,0.8-2.5,2-3.9,2.9c-1.7,1.7-5,1.3-7.1,1.4
						c-2.4,0.1-4.9,0.1-7.3-0.1c-1.4-0.1-2.8-0.1-4-0.7c-0.3-0.7,0.6-1.3,1.3-1.5c4.8-1.5,10.2-0.3,14.9-2.1
						c0.3-0.1,0.7-0.3,0.9-0.6s0.2-0.8-0.1-1c-2.5,0.7-5.1,1.1-7.7,1.2c-2.4,0-4.7-0.6-7-1c-3-0.4-5.9-0.7-8.9-0.9
						c-3-0.1-6-0.2-9,0.1c-2.7,0.2-5.3,0.2-8.1,0c-0.7,0-1.5-0.1-2.1,0.4c-0.3,0.2-0.5,0.6-0.3,0.8c0.1,0.1,0.3,0.2,0.5,0.2
						c4.9,1,10.1,0.3,15.1,0.9c-0.7,0.9-2,0.9-3.2,0.9c-1.3,0-2.5,0-3.8,0c-0.2,0-0.6,0.1-0.6,0.3c0,0.2,0.2,0.3,0.3,0.4
						c3.6,1.6,8.3,1.8,12.1,1.2c1.2,0.7-0.9,2.1-2.2,1.8c-6.3-1-12.5-2-18.8-3c1.6,2.8,3.5,5.5,5.7,7.9c16.4,1.5,33,0.9,49.2-2
						c3.6-0.6,7.1-1.3,10.7-1.7c3.7-0.4,7.6-0.5,11.4-0.7c1-1.4,1.9-2.9,2.8-4.5C115,451.5,108,450.9,101,450.3z"/>
				</g>
				<g>
					<path fill="#F2BD7E" d="M106.6,433.2c-1.8,0.7-3.3,1.9-4.8,3c-8.9,5.9-20.4,5.1-31,4.1c5.1-3.2,11.2-4.8,17.2-4.4
						c2,0.1,4,0.5,5.9,0c1.9-0.5,3.8-2,3.8-4c-8,0.8-16,1.7-24,2.5c-2.6,0.3-5.2,0.5-7.6,1.4c-3.7,1.4-7,4.2-11,4.3
						c-2.9,0.1-5.6-1.3-8.3-2.4c-3.3-1.3-6.7-2.3-10.2-2.8c0.4,3.9,1.2,7.7,2.5,11.3c4.4,0.2,9,0.4,13.2-0.3
						c3.1-0.5,6.2-1.6,9.3-1.7c2.4,0,4.8,0.5,7.1,1c8.6,1.6,17.5,1.4,26.1-0.5c2-0.5,4.1-1,6-1.9c1.6-0.7,3.2-1.7,4.9-2.4
						c6.5-2.6,13.4-0.4,20.4,0.9c0.3-1,0.5-2.1,0.6-3.1c-0.8-0.2-1.5-0.4-2.3-0.7C118.5,435.4,112.5,430.9,106.6,433.2z"/>
				</g>
			</g>
		</g>
	</g>
	<g opacity="0.71">
		<circle fill="#5FBBD4" cx="1157.7" cy="90.6" r="36"/>
		<g>
			<g>
				<g>
					<path fill="#BADFF6" d="M1159.6,118.8c0.9-0.2,1.7-0.5,2.5-0.9c-1.8-0.3-3.7,0.4-5.5,0.5c-0.7,0-1.4,0-2,0
						c-2.4-0.1-4.8-0.3-7.2-0.2c-2.6,0-5.1,0.2-7.7,0.3c-1.6,0-3.2,0-4.8-0.1c6.2,5.1,14.2,8.2,22.8,8.2c7.3,0,14.2-2.2,19.8-6
						c-0.7,0.4-2.7,0.2-3.6,0.2c-1.2,0.1-2.4,0.1-3.6,0.2c-2.3,0.1-4.5,0.7-6.8,0.8c-0.7,0-1.4,0-2.1,0c-2.2,0.2-4.3,1.2-6.6,1.1
						c-2-0.1-3.8-1.2-5.8-1.6c-0.4-0.1-0.8-0.1-1.2-0.2c-1.3-0.2-2.6-0.4-3.9-0.6c0-0.3,0.2-0.7,0.6-0.8c0.3-0.1,0.7-0.1,1-0.1
						c3.3,0.1,6.6-0.8,9.9-0.8c1,0,2,0.1,2.9,0C1159,118.9,1159.3,118.9,1159.6,118.8z"/>
				</g>
				<g>
					<path fill="#BADFF6" d="M1153.4,63.9c0.8,0.1,1.6,0.4,2.4,0.8c-2.5,0.6-5.2-0.1-7.8,0.4c-1.1,0.2-2.1,0.7-3.2,0.8
						c-0.8,0.1-1.6,0-2.3,0c-1,0-2,0.1-3,0.3c-0.5,0.1-1,0.2-1.3,0.5c-0.4,0.3-0.6,0.8-0.4,1.3c2,0.4,4,0.4,6,0.3
						c2.8-0.1,5.5-0.2,8.3-0.3c1,0,2-0.1,3,0.1c1.7,0.3,3.4,1.2,5.1,1.4c0.7,0.1,1.4,0,2,0c2.4,0.1,4.8,1.1,7.2,0.8
						c-0.8-0.5-1.8-0.7-2.7-0.7c-0.4,0-0.8,0.1-1.2,0c-0.4-0.1-0.8-0.4-0.8-0.8c-0.1-0.6,5.3-0.1,5.8,0c2.2,0.4,4.3,0.8,6.5,1.3
						c4.3,1,8.5,2.2,12.7,3.5c-0.8-1.6-1.8-3.1-2.8-4.6c-0.3-0.5-1.8-0.8-2.3-1c-0.8-0.3-1.5-0.6-2.3-0.9c-1.6-0.6-3.2-1.1-4.8-1.5
						c-3.1-0.8-6.5-0.8-9.4-2.1c-0.4-0.2-0.8-0.4-1.3-0.6c-1.2-0.5-2.5-0.7-3.8-0.6c-0.3,0-0.6,0.1-0.9,0s-0.6-0.3-0.6-0.6
						c-0.1-0.5,0.4-0.8,0.9-1c0.6-0.1,1.2-0.1,1.8-0.1c1.2,0,2.5,0,3.7,0c0.3,0,0.7,0,1,0.1c1,0.2,1.9,1.1,2.8,0.8
						c0.1-0.7-0.7-1.3-1.4-1.5c-2.1-0.7-4.2-0.4-6.3-0.6c-2-0.1-4.1,0-6.2,0.1c-1.5,0.1-3,0.4-4.6,0.5c-1.6,0.1-3.1,0-4.7,0.4
						c-0.9,0.2-1.9,0.5-2.5-0.1c-0.2-0.5,0.4-1,1-1.1c1.4-0.5,2.8-0.6,4.2-0.5c0.8,0.1,1.8,0.2,2.4-0.4c0.1-0.1,0.2-0.3,0.4-0.4
						c0.1-0.1,0.3-0.1,0.5-0.1c1.2,0,2.4,0,3.7,0c0.1-0.2,0-0.5-0.1-0.7c-2.1,0-4.2,0.1-6.3,0.1c-1.3,0-2.6,0.1-3.8,0.4
						c-2.7,0.7-5.4,1-8.2,1.6c-3.1,1.8-5.9,4.1-8.3,6.7c0.4-0.5,2.4-0.6,3-0.8c1.1-0.3,2.1-0.5,3.2-0.7c2.1-0.4,4.3-0.8,6.5-1
						c2.1-0.2,4.3-0.4,6.4-0.2C1151.4,63.7,1152.4,63.7,1153.4,63.9z"/>
				</g>
				<g>
					<path fill="#BADFF6" d="M1177.2,78.8c-3,0.8-6.7,2-8.8-0.3c-0.7-0.8-1.1-1.8-1.9-2.5c-1.8-1.6-4.5-0.5-6.8,0.3
						c-2.4,0.8-4.8,1.3-7.3,1.5c-2.2,0.2-4.6,0.1-6.8,0.7c-2.3,0.6-5.1,0.2-7.5,0.2c-2.6,0-5.2-0.1-7.9-0.3c-0.2,0-0.5,0-0.7-0.2
						c-0.2-0.1-0.3-0.4-0.2-0.6c0.1-0.1,0.2-0.2,0.4-0.2c4.7-1.2,9.6-1.8,14.5-1.5c0.2-0.2,0.1-0.6-0.1-0.7s-0.5-0.2-0.8-0.3
						c-3.2-0.4-6.3-0.6-9.5-0.7c-1.4-0.1-2.9-0.2-4.3,0c-0.5,0.1-3.9,0-4.1,0.4c-1.9,3.7-3.1,7.9-3.6,12.2c2.1-0.6,4.3-0.9,6.5-0.7
						c2.6,0.2,5.1,0.9,7.7,0.9c8.3,0.2,16.4-6.4,24.3-3.6c1.4,0.5,2.7,1.3,4.1,1.8c5.6,2,11.6-0.6,17.4-1.6c3.7-0.6,7.4-0.6,11-0.2
						c-0.3-1.4-0.7-2.8-1.2-4.2C1187,77.8,1182.1,77.5,1177.2,78.8z"/>
				</g>
				<g>
					<path fill="#BADFF6" d="M1172.8,106.2c-2.6-0.2-5.3-0.4-7.5,0.9c-1.1,0.6-2,1.6-3.1,2.3c-1.3,1.3-4,1-5.6,1.1
						c-1.9,0.1-3.8,0-5.8,0c-1.1-0.1-2.2-0.1-3.2-0.6c-0.2-0.5,0.4-1,1-1.2c3.8-1.2,8-0.2,11.7-1.7c0.3-0.1,0.5-0.2,0.7-0.5
						c0.2-0.2,0.2-0.6,0-0.8c-2,0.6-4,0.9-6.1,0.9c-1.9,0-3.7-0.5-5.6-0.8c-2.3-0.4-4.7-0.6-7-0.7c-2.3-0.1-4.7-0.1-7.1,0.1
						c-2.1,0.2-4.2,0.1-6.4,0c-0.6,0-1.2,0-1.7,0.3c-0.2,0.1-0.4,0.5-0.2,0.7c0.1,0.1,0.2,0.2,0.4,0.2c3.9,0.8,7.9,0.2,11.9,0.7
						c-0.6,0.7-1.6,0.7-2.5,0.7c-1,0-2,0-3,0c-0.2,0-0.5,0.1-0.5,0.3c0,0.1,0.1,0.2,0.3,0.3c2.8,1.3,6.5,1.4,9.6,1
						c0.9,0.6-0.7,1.6-1.8,1.4c-4.9-0.8-9.9-1.6-14.8-2.4c1.3,2.2,2.8,4.3,4.5,6.2c12.9,1.2,26,0.7,38.8-1.5
						c2.8-0.5,5.6-1.1,8.4-1.4c3-0.3,6-0.4,9-0.5c0.8-1.1,1.5-2.3,2.2-3.5C1183.9,107.2,1178.3,106.7,1172.8,106.2z"/>
				</g>
				<g>
					<path fill="#BADFF6" d="M1177.2,92.7c-1.4,0.5-2.6,1.5-3.8,2.4c-7,4.6-16.1,4-24.5,3.2c4-2.6,8.9-3.8,13.6-3.5
						c1.6,0.1,3.1,0.4,4.7,0c1.5-0.4,3-1.6,3-3.1c-6.3,0.7-12.6,1.3-18.9,2c-2,0.2-4.1,0.4-6,1.1c-2.9,1.1-5.5,3.3-8.7,3.4
						c-2.3,0.1-4.4-1-6.6-1.9c-2.6-1.1-5.3-1.8-8.1-2.2c0.3,3.1,1,6.1,2,8.9c3.5,0.1,7.1,0.3,10.4-0.2c2.5-0.4,4.9-1.3,7.4-1.3
						c1.9,0,3.8,0.4,5.6,0.8c6.8,1.2,13.9,1.1,20.6-0.4c1.6-0.4,3.2-0.8,4.7-1.5c1.3-0.6,2.5-1.3,3.8-1.9c5.1-2,10.6-0.3,16.1,0.7
						c0.2-0.8,0.4-1.6,0.5-2.5c-0.6-0.2-1.2-0.4-1.8-0.6C1186.7,94.4,1181.9,90.9,1177.2,92.7z"/>
				</g>
			</g>
		</g>
	</g>
	<g opacity="0.71">
		<g>
			<circle fill="#E8A04D" cx="1253.3" cy="411.1" r="69"/>
			<g>
				<g>
					<g>
						<path fill="#F2BD7E" d="M1256.9,465.3c1.7-0.3,3.3-0.9,4.8-1.7c-3.5-0.6-7,0.8-10.5,1c-1.3,0.1-2.6,0-3.9-0.1
							c-4.6-0.3-9.2-0.5-13.7-0.4c-4.9,0.1-9.8,0.4-14.7,0.5c-3.1,0.1-6.2,0-9.3-0.2c11.9,9.8,27.2,15.7,43.8,15.7
							c14.1,0,27.2-4.2,38.1-11.5c-1.3,0.8-5.3,0.4-6.8,0.5c-2.3,0.1-4.5,0.3-6.8,0.4c-4.4,0.2-8.6,1.4-13,1.5c-1.3,0-2.7,0-4,0.1
							c-4.3,0.3-8.3,2.3-12.6,2c-3.9-0.2-7.4-2.2-11.2-3c-0.8-0.2-1.5-0.3-2.3-0.4c-2.5-0.4-5-0.7-7.5-1.1c-0.1-0.7,0.5-1.3,1.1-1.5
							s1.3-0.2,2-0.2c6.4,0.3,12.7-1.6,19.1-1.5c1.9,0,3.8,0.2,5.7,0.1C1255.7,465.5,1256.3,465.4,1256.9,465.3z"/>
					</g>
					<g>
						<path fill="#F2BD7E" d="M1245.1,360c1.6,0.3,3.1,0.7,4.7,1.5c-4.9,1.1-10.1-0.3-15,0.8c-2.1,0.4-4,1.3-6.1,1.6
							c-1.5,0.2-3,0.1-4.5,0.1c-2,0-3.9,0.2-5.8,0.6c-0.9,0.2-1.8,0.4-2.5,1c-0.7,0.6-1.1,1.6-0.8,2.5c3.8,0.8,7.7,0.7,11.6,0.6
							c5.3-0.2,10.6-0.3,15.9-0.5c1.9-0.1,3.8-0.1,5.7,0.2c3.3,0.6,6.4,2.3,9.8,2.6c1.3,0.1,2.6,0,3.9,0.1c4.6,0.2,9.2,2.1,13.8,1.5
							c-1.6-1-3.4-1.4-5.2-1.3c-0.8,0-1.5,0.2-2.3,0c-0.8-0.2-1.5-0.7-1.6-1.5c-0.1-1.2,10.1-0.1,11.1,0.1c4.2,0.8,8.3,1.6,12.4,2.6
							c8.2,1.9,16.4,4.2,24.4,6.8c-1.6-3.1-3.4-6-5.4-8.7c-0.6-0.9-3.4-1.5-4.4-1.9c-1.5-0.6-3-1.2-4.5-1.7c-3-1.1-6.1-2-9.2-2.9
							c-5.9-1.5-12.5-1.5-18.1-4.1c-0.8-0.4-1.6-0.8-2.4-1.2c-2.3-1-4.8-1.4-7.3-1.2c-0.6,0.1-1.2,0.2-1.7,0
							c-0.6-0.1-1.1-0.5-1.2-1.1c-0.2-0.9,0.8-1.6,1.8-1.8c1.1-0.3,2.2-0.3,3.4-0.3c2.4,0,4.7,0,7.1,0c0.6,0,1.3,0,1.9,0.1
							c1.9,0.4,3.6,2.2,5.4,1.5c0.1-1.4-1.4-2.4-2.7-2.9c-4.1-1.4-8-0.8-12.2-1.1c-3.9-0.2-7.9,0.1-11.8,0.2c-3,0.1-5.8,0.8-8.8,0.9
							c-3,0.2-6,0-8.9,0.7c-1.6,0.4-3.6,0.9-4.8-0.2c-0.4-1,0.8-1.8,1.8-2.2c2.6-0.9,5.4-1.2,8.1-0.9c1.6,0.1,3.5,0.4,4.6-0.8
							c0.2-0.2,0.4-0.5,0.7-0.7c0.3-0.1,0.6-0.1,0.9-0.2c2.3,0,4.7,0,7,0c0.1-0.4,0-0.9-0.1-1.3c-4,0.1-8,0.2-12.1,0.3
							c-2.5,0.1-5,0.1-7.3,0.8c-5.2,1.4-10.4,2-15.8,3c-5.9,3.5-11.3,7.9-15.9,12.9c0.8-0.9,4.6-1.2,5.8-1.5c2-0.5,4.1-1,6.2-1.4
							c4.1-0.8,8.3-1.4,12.4-1.8c4-0.4,8.2-0.7,12.3-0.5C1241.2,359.5,1243.1,359.6,1245.1,360z"/>
					</g>
					<g>
						<path fill="#F2BD7E" d="M1290.8,388.5c-5.8,1.5-12.9,3.8-16.9-0.6c-1.4-1.5-2.1-3.5-3.6-4.8c-3.5-3-8.7-0.9-13,0.6
							c-4.5,1.6-9.3,2.4-14.1,2.9c-4.3,0.4-8.8,0.1-13,1.3c-4.4,1.2-9.9,0.5-14.4,0.4c-5-0.1-10.1-0.3-15.1-0.6
							c-0.4,0-0.9-0.1-1.3-0.3c-0.4-0.3-0.6-0.8-0.3-1.2c0.2-0.2,0.5-0.3,0.8-0.4c9.1-2.4,18.5-3.4,27.9-3c0.4-0.3,0.3-1.1-0.1-1.4
							c-0.4-0.3-1-0.4-1.5-0.5c-6-0.7-12.1-1.1-18.2-1.4c-2.7-0.1-5.6-0.4-8.3-0.1c-1,0.1-7.6,0-7.9,0.7c-3.6,7.2-6,15.1-6.9,23.4
							c4-1.1,8.2-1.6,12.4-1.4c5,0.3,9.9,1.7,14.8,1.8c15.9,0.3,31.5-12.3,46.5-7c2.7,0.9,5.1,2.4,7.8,3.4
							c10.7,3.8,22.2-1.2,33.4-3.1c7-1.2,14.1-1.2,21.2-0.4c-0.6-2.7-1.3-5.4-2.2-8C1309.4,386.6,1300.1,386.1,1290.8,388.5z"/>
					</g>
					<g>
						<path fill="#F2BD7E" d="M1282.3,441.1c-4.9-0.4-10.2-0.8-14.5,1.7c-2.1,1.2-3.8,3.1-5.9,4.3c-2.5,2.5-7.6,2-10.8,2.2
							c-3.7,0.2-7.4,0.1-11.1-0.1c-2.1-0.1-4.2-0.2-6.1-1.1c-0.4-1,0.8-1.9,1.9-2.3c7.2-2.3,15.4-0.5,22.5-3.2
							c0.5-0.2,1-0.4,1.4-0.9s0.3-1.2-0.1-1.5c-3.8,1.1-7.8,1.7-11.7,1.8c-3.6,0.1-7.1-0.9-10.7-1.5c-4.5-0.7-9-1.1-13.5-1.3
							c-4.5-0.2-9.1-0.3-13.6,0.1c-4.1,0.3-8.1,0.2-12.3,0c-1.1-0.1-2.3-0.1-3.2,0.5c-0.4,0.3-0.8,0.9-0.5,1.3
							c0.2,0.2,0.5,0.3,0.7,0.4c7.5,1.6,15.2,0.5,22.8,1.3c-1.1,1.3-3.1,1.4-4.8,1.4c-1.9,0-3.8,0-5.8,0c-0.4,0-0.9,0.1-0.9,0.5
							c0,0.3,0.3,0.4,0.5,0.6c5.4,2.5,12.5,2.7,18.4,1.9c1.8,1.1-1.3,3.1-3.4,2.8c-9.5-1.5-19-3.1-28.5-4.6c2.5,4.3,5.4,8.3,8.6,12
							c24.8,2.3,50,1.3,74.5-3c5.4-0.9,10.7-2,16.2-2.6c5.7-0.6,11.5-0.7,17.2-1c1.5-2.2,2.9-4.4,4.2-6.8
							C1303.5,443,1292.9,442,1282.3,441.1z"/>
					</g>
					<g>
						<path fill="#F2BD7E" d="M1290.8,415.2c-2.7,1-4.9,2.9-7.3,4.5c-13.5,8.9-31,7.7-47,6.2c7.7-4.9,17-7.3,26.1-6.7
							c3,0.2,6,0.7,8.9,0c2.9-0.7,5.7-3,5.7-6c-12.1,1.3-24.2,2.5-36.3,3.8c-3.9,0.4-7.8,0.8-11.5,2.2c-5.6,2.1-10.6,6.3-16.6,6.5
							c-4.4,0.1-8.5-2-12.6-3.6c-5-2-10.2-3.5-15.5-4.3c0.6,6,1.9,11.7,3.9,17.1c6.7,0.2,13.6,0.7,20-0.4c4.7-0.8,9.4-2.4,14.2-2.5
							c3.6-0.1,7.2,0.8,10.8,1.5c13.1,2.4,26.6,2.1,39.5-0.7c3.1-0.7,6.2-1.5,9-2.8c2.5-1.1,4.8-2.6,7.4-3.6
							c9.8-3.9,20.3-0.6,30.9,1.4c0.4-1.6,0.7-3.1,1-4.7c-1.2-0.3-2.3-0.7-3.5-1.1C1308.9,418.5,1299.7,411.7,1290.8,415.2z"/>
					</g>
				</g>
			</g>
		</g>
		<path fill="#F6F3C8" d="M1376.1,362.2c-3.8-9.5-32.3-7.6-71.3,3c1.2,1.4,2.4,2.8,3.6,4.3c26.8-6.2,45.6-6.6,48.4,0.4
			c4.7,11.8-37.6,39.7-94.5,62.5c-56.9,22.8-106.9,31.7-111.6,19.9c-2.8-6.9,10.8-19.5,34.1-33.3c-0.2-1.9-0.4-3.7-0.4-5.6
			c-35.2,19.1-56.8,37.3-53,46.7c5.6,14,64.9,3.4,132.5-23.7C1331.4,409.4,1381.7,376.2,1376.1,362.2z"/>
	</g>
	<g>
		<g>
			<g>
				
					<rect x="912.9" y="349.6" transform="matrix(0.5705 0.8213 -0.8213 0.5705 693.4937 -593.7756)" fill="#4A5164" width="3.3" height="33.2"/>
				
					<rect x="906.2" y="340" transform="matrix(0.833 0.5533 -0.5533 0.833 348.9496 -442.7437)" fill="#4A5164" width="3.3" height="33.2"/>
				
					<rect x="919.5" y="359.2" transform="matrix(-0.2278 -0.9737 0.9737 -0.2278 765.117 1358.3208)" fill="#4A5164" width="3.3" height="33.2"/>
				<g>
					
						<rect x="945.6" y="272.6" transform="matrix(0.5705 0.8213 -0.8213 0.5705 686.0538 -652.816)" fill="#B3B4B5" width="43.4" height="113.9"/>
					
						<rect x="996.3" y="284.9" transform="matrix(0.5705 0.8213 -0.8213 0.5705 666.9662 -699.3355)" fill="#2C4D63" width="11.8" height="6.3"/>
					
						<rect x="1004.3" y="296.5" transform="matrix(0.5705 0.8213 -0.8213 0.5705 679.985 -700.976)" fill="#2C4D63" width="11.8" height="6.3"/>
					
						<rect x="1012.4" y="308.2" transform="matrix(0.5705 0.8213 -0.8213 0.5705 693.0038 -702.6166)" fill="#2C4D63" width="11.8" height="6.3"/>
					
						<rect x="989.1" y="289.9" transform="matrix(0.5705 0.8213 -0.8213 0.5705 667.9706 -691.3653)" fill="#2C4D63" width="11.8" height="6.3"/>
					
						<rect x="997.2" y="301.5" transform="matrix(0.5705 0.8213 -0.8213 0.5705 680.9894 -693.0059)" fill="#2C4D63" width="11.8" height="6.3"/>
					
						<rect x="1005.3" y="313.1" transform="matrix(0.5705 0.8213 -0.8213 0.5705 694.0081 -694.6464)" fill="#2C4D63" width="11.8" height="6.3"/>
					
						<rect x="982" y="294.8" transform="matrix(0.5705 0.8213 -0.8213 0.5705 668.9749 -683.3951)" fill="#2C4D63" width="11.8" height="6.3"/>
					
						<rect x="990.1" y="306.4" transform="matrix(0.5705 0.8213 -0.8213 0.5705 681.9937 -685.0358)" fill="#2C4D63" width="11.8" height="6.3"/>
					
						<rect x="998.2" y="318.1" transform="matrix(0.5705 0.8213 -0.8213 0.5705 695.0125 -686.6763)" fill="#2C4D63" width="11.8" height="6.3"/>
					
						<rect x="974.9" y="299.7" transform="matrix(0.5705 0.8213 -0.8213 0.5705 669.9792 -675.425)" fill="#2C4D63" width="11.8" height="6.3"/>
					
						<rect x="983" y="311.4" transform="matrix(0.5705 0.8213 -0.8213 0.5705 682.998 -677.0656)" fill="#2C4D63" width="11.8" height="6.3"/>
					
						<rect x="991.1" y="323" transform="matrix(0.5705 0.8213 -0.8213 0.5705 696.0168 -678.7061)" fill="#2C4D63" width="11.8" height="6.3"/>
					
						<rect x="967.8" y="304.7" transform="matrix(0.5705 0.8213 -0.8213 0.5705 670.9836 -667.4549)" fill="#2C4D63" width="11.8" height="6.3"/>
					
						<rect x="975.9" y="316.3" transform="matrix(0.5705 0.8213 -0.8213 0.5705 684.0024 -669.0955)" fill="#2C4D63" width="11.8" height="6.3"/>
					
						<rect x="983.9" y="328" transform="matrix(0.5705 0.8213 -0.8213 0.5705 697.0212 -670.736)" fill="#2C4D63" width="11.8" height="6.3"/>
					
						<rect x="960.7" y="309.6" transform="matrix(0.5705 0.8213 -0.8213 0.5705 671.9879 -659.4847)" fill="#2C4D63" width="11.8" height="6.3"/>
					
						<rect x="968.7" y="321.3" transform="matrix(0.5705 0.8213 -0.8213 0.5705 685.0067 -661.1253)" fill="#2C4D63" width="11.8" height="6.3"/>
					
						<rect x="976.8" y="332.9" transform="matrix(0.5705 0.8213 -0.8213 0.5705 698.0255 -662.7659)" fill="#2C4D63" width="11.8" height="6.3"/>
					
						<rect x="953.5" y="314.6" transform="matrix(0.5705 0.8213 -0.8213 0.5705 672.9922 -651.5146)" fill="#2C4D63" width="11.8" height="6.3"/>
					
						<rect x="961.6" y="326.2" transform="matrix(0.5705 0.8213 -0.8213 0.5705 686.011 -653.1552)" fill="#2C4D63" width="11.8" height="6.3"/>
					
						<rect x="969.7" y="337.8" transform="matrix(0.5705 0.8213 -0.8213 0.5705 699.0299 -654.7957)" fill="#2C4D63" width="11.8" height="6.3"/>
					
						<rect x="946.4" y="319.5" transform="matrix(0.5705 0.8213 -0.8213 0.5705 673.9966 -643.5445)" fill="#2C4D63" width="11.8" height="6.3"/>
					
						<rect x="954.5" y="331.2" transform="matrix(0.5705 0.8213 -0.8213 0.5705 687.0154 -645.185)" fill="#2C4D63" width="11.8" height="6.3"/>
					
						<rect x="962.6" y="342.8" transform="matrix(0.5705 0.8213 -0.8213 0.5705 700.0342 -646.8256)" fill="#2C4D63" width="11.8" height="6.3"/>
					
						<rect x="939.3" y="324.5" transform="matrix(0.5705 0.8213 -0.8213 0.5705 675.001 -635.5743)" fill="#2C4D63" width="11.8" height="6.3"/>
					
						<rect x="947.4" y="336.1" transform="matrix(0.5705 0.8213 -0.8213 0.5705 688.0198 -637.2149)" fill="#2C4D63" width="11.8" height="6.3"/>
					
						<rect x="955.5" y="347.7" transform="matrix(0.5705 0.8213 -0.8213 0.5705 701.0386 -638.8554)" fill="#2C4D63" width="11.8" height="6.3"/>
					
						<rect x="932.2" y="329.4" transform="matrix(0.5705 0.8213 -0.8213 0.5705 676.0053 -627.6041)" fill="#2C4D63" width="11.8" height="6.3"/>
					
						<rect x="940.3" y="341.1" transform="matrix(0.5705 0.8213 -0.8213 0.5705 689.0241 -629.2448)" fill="#2C4D63" width="11.8" height="6.3"/>
					
						<rect x="948.3" y="352.7" transform="matrix(0.5705 0.8213 -0.8213 0.5705 702.0429 -630.8853)" fill="#2C4D63" width="11.8" height="6.3"/>
					
						<rect x="925.1" y="334.4" transform="matrix(0.5705 0.8213 -0.8213 0.5705 677.0096 -619.634)" fill="#2C4D63" width="11.8" height="6.3"/>
					
						<rect x="933.1" y="346" transform="matrix(0.5705 0.8213 -0.8213 0.5705 690.0284 -621.2746)" fill="#2C4D63" width="11.8" height="6.3"/>
					
						<rect x="941.2" y="357.6" transform="matrix(0.5705 0.8213 -0.8213 0.5705 703.0472 -622.9152)" fill="#2C4D63" width="11.8" height="6.3"/>
					
						<rect x="918" y="339.3" transform="matrix(0.5705 0.8213 -0.8213 0.5705 678.014 -611.6639)" fill="#2C4D63" width="11.8" height="6.3"/>
					
						<rect x="926" y="350.9" transform="matrix(0.5705 0.8213 -0.8213 0.5705 691.0328 -613.3044)" fill="#2C4D63" width="11.8" height="6.3"/>
					
						<rect x="934.1" y="362.6" transform="matrix(0.5705 0.8213 -0.8213 0.5705 704.0516 -614.945)" fill="#2C4D63" width="11.8" height="6.3"/>
					
						<rect x="910.8" y="344.3" transform="matrix(0.5705 0.8213 -0.8213 0.5705 679.0184 -603.6937)" fill="#2C4D63" width="11.8" height="6.3"/>
					
						<rect x="918.9" y="355.9" transform="matrix(0.5705 0.8213 -0.8213 0.5705 692.0371 -605.3343)" fill="#2C4D63" width="11.8" height="6.3"/>
					
						<rect x="927" y="367.5" transform="matrix(0.5705 0.8213 -0.8213 0.5705 705.0559 -606.9749)" fill="#2C4D63" width="11.8" height="6.3"/>
				</g>
			</g>
			<g>
				
					<rect x="867" y="381.4" transform="matrix(0.5705 0.8213 -0.8213 0.5705 699.9584 -542.4734)" fill="#4A5164" width="3.3" height="33.2"/>
				
					<rect x="860.4" y="371.9" transform="matrix(0.2278 0.9737 -0.9737 0.2278 1043.8799 -539.3914)" fill="#4A5164" width="3.3" height="33.2"/>
				
					<rect x="873.7" y="391" transform="matrix(-0.833 -0.5533 0.5533 -0.833 1378.9287 1231.4672)" fill="#4A5164" width="3.3" height="33.2"/>
				<g>
					
						<rect x="794.3" y="377.7" transform="matrix(0.5705 0.8213 -0.8213 0.5705 707.3983 -483.433)" fill="#B3B4B5" width="43.4" height="113.9"/>
					
						<rect x="758.9" y="449.8" transform="matrix(0.5705 0.8213 -0.8213 0.5705 700.4483 -433.6325)" fill="#2C4D63" width="11.8" height="6.3"/>
					
						<rect x="767" y="461.4" transform="matrix(0.5705 0.8213 -0.8213 0.5705 713.4671 -435.2731)" fill="#2C4D63" width="11.8" height="6.3"/>
					
						<rect x="775.1" y="473" transform="matrix(0.5705 0.8213 -0.8213 0.5705 726.4859 -436.9136)" fill="#2C4D63" width="11.8" height="6.3"/>
					
						<rect x="766.1" y="444.8" transform="matrix(0.5705 0.8213 -0.8213 0.5705 699.444 -441.6027)" fill="#2C4D63" width="11.8" height="6.3"/>
					
						<rect x="774.1" y="456.5" transform="matrix(0.5705 0.8213 -0.8213 0.5705 712.4628 -443.2432)" fill="#2C4D63" width="11.8" height="6.3"/>
					
						<rect x="782.2" y="468.1" transform="matrix(0.5705 0.8213 -0.8213 0.5705 725.4816 -444.8837)" fill="#2C4D63" width="11.8" height="6.3"/>
					
						<rect x="773.2" y="439.9" transform="matrix(0.5705 0.8213 -0.8213 0.5705 698.4396 -449.5728)" fill="#2C4D63" width="11.8" height="6.3"/>
					
						<rect x="781.3" y="451.5" transform="matrix(0.5705 0.8213 -0.8213 0.5705 711.4584 -451.2133)" fill="#2C4D63" width="11.8" height="6.3"/>
					
						<rect x="789.3" y="463.1" transform="matrix(0.5705 0.8213 -0.8213 0.5705 724.4772 -452.8539)" fill="#2C4D63" width="11.8" height="6.3"/>
					
						<rect x="780.3" y="434.9" transform="matrix(0.5705 0.8213 -0.8213 0.5705 697.4353 -457.543)" fill="#2C4D63" width="11.8" height="6.3"/>
					
						<rect x="788.4" y="446.6" transform="matrix(0.5705 0.8213 -0.8213 0.5705 710.4541 -459.1835)" fill="#2C4D63" width="11.8" height="6.3"/>
					
						<rect x="796.5" y="458.2" transform="matrix(0.5705 0.8213 -0.8213 0.5705 723.4729 -460.824)" fill="#2C4D63" width="11.8" height="6.3"/>
					
						<rect x="787.4" y="430" transform="matrix(0.5705 0.8213 -0.8213 0.5705 696.4309 -465.5131)" fill="#2C4D63" width="11.8" height="6.3"/>
					
						<rect x="795.5" y="441.6" transform="matrix(0.5705 0.8213 -0.8213 0.5705 709.4497 -467.1536)" fill="#2C4D63" width="11.8" height="6.3"/>
					
						<rect x="803.6" y="453.3" transform="matrix(0.5705 0.8213 -0.8213 0.5705 722.4685 -468.7941)" fill="#2C4D63" width="11.8" height="6.3"/>
					
						<rect x="794.5" y="425.1" transform="matrix(0.5705 0.8213 -0.8213 0.5705 695.4266 -473.4832)" fill="#2C4D63" width="11.8" height="6.3"/>
					
						<rect x="802.6" y="436.7" transform="matrix(0.5705 0.8213 -0.8213 0.5705 708.4454 -475.1238)" fill="#2C4D63" width="11.8" height="6.3"/>
					
						<rect x="810.7" y="448.3" transform="matrix(0.5705 0.8213 -0.8213 0.5705 721.4642 -476.7643)" fill="#2C4D63" width="11.8" height="6.3"/>
					
						<rect x="801.7" y="420.1" transform="matrix(0.5705 0.8213 -0.8213 0.5705 694.4222 -481.4534)" fill="#2C4D63" width="11.8" height="6.3"/>
					
						<rect x="809.7" y="431.7" transform="matrix(0.5705 0.8213 -0.8213 0.5705 707.441 -483.0939)" fill="#2C4D63" width="11.8" height="6.3"/>
					
						<rect x="817.8" y="443.4" transform="matrix(0.5705 0.8213 -0.8213 0.5705 720.4598 -484.7345)" fill="#2C4D63" width="11.8" height="6.3"/>
					
						<rect x="808.8" y="415.2" transform="matrix(0.5705 0.8213 -0.8213 0.5705 693.4179 -489.4235)" fill="#2C4D63" width="11.8" height="6.3"/>
					
						<rect x="816.8" y="426.8" transform="matrix(0.5705 0.8213 -0.8213 0.5705 706.4367 -491.064)" fill="#2C4D63" width="11.8" height="6.3"/>
					
						<rect x="824.9" y="438.4" transform="matrix(0.5705 0.8213 -0.8213 0.5705 719.4555 -492.7046)" fill="#2C4D63" width="11.8" height="6.3"/>
					
						<rect x="815.9" y="410.2" transform="matrix(0.5705 0.8213 -0.8213 0.5705 692.4136 -497.3937)" fill="#2C4D63" width="11.8" height="6.3"/>
					
						<rect x="824" y="421.8" transform="matrix(0.5705 0.8213 -0.8213 0.5705 705.4323 -499.0342)" fill="#2C4D63" width="11.8" height="6.3"/>
					
						<rect x="832" y="433.5" transform="matrix(0.5705 0.8213 -0.8213 0.5705 718.4512 -500.6747)" fill="#2C4D63" width="11.8" height="6.3"/>
					
						<rect x="823" y="405.3" transform="matrix(0.5705 0.8213 -0.8213 0.5705 691.4092 -505.3638)" fill="#2C4D63" width="11.8" height="6.3"/>
					
						<rect x="831.1" y="416.9" transform="matrix(0.5705 0.8213 -0.8213 0.5705 704.428 -507.0043)" fill="#2C4D63" width="11.8" height="6.3"/>
					
						<rect x="839.2" y="428.5" transform="matrix(0.5705 0.8213 -0.8213 0.5705 717.4468 -508.6449)" fill="#2C4D63" width="11.8" height="6.3"/>
					
						<rect x="830.1" y="400.3" transform="matrix(0.5705 0.8213 -0.8213 0.5705 690.4048 -513.3339)" fill="#2C4D63" width="11.8" height="6.3"/>
					
						<rect x="838.2" y="412" transform="matrix(0.5705 0.8213 -0.8213 0.5705 703.4236 -514.9745)" fill="#2C4D63" width="11.8" height="6.3"/>
					
						<rect x="846.3" y="423.6" transform="matrix(0.5705 0.8213 -0.8213 0.5705 716.4424 -516.6151)" fill="#2C4D63" width="11.8" height="6.3"/>
					
						<rect x="837.2" y="395.4" transform="matrix(0.5705 0.8213 -0.8213 0.5705 689.4005 -521.3041)" fill="#2C4D63" width="11.8" height="6.3"/>
					
						<rect x="845.3" y="407" transform="matrix(0.5705 0.8213 -0.8213 0.5705 702.4193 -522.9446)" fill="#2C4D63" width="11.8" height="6.3"/>
					
						<rect x="853.4" y="418.6" transform="matrix(0.5705 0.8213 -0.8213 0.5705 715.4381 -524.5851)" fill="#2C4D63" width="11.8" height="6.3"/>
					
						<rect x="844.4" y="390.4" transform="matrix(0.5705 0.8213 -0.8213 0.5705 688.3962 -529.2742)" fill="#2C4D63" width="11.8" height="6.3"/>
					
						<rect x="852.4" y="402.1" transform="matrix(0.5705 0.8213 -0.8213 0.5705 701.415 -530.9148)" fill="#2C4D63" width="11.8" height="6.3"/>
					
						<rect x="860.5" y="413.7" transform="matrix(0.5705 0.8213 -0.8213 0.5705 714.4338 -532.5553)" fill="#2C4D63" width="11.8" height="6.3"/>
				</g>
			</g>
		</g>
		<g>
			<polygon fill="#B3B4B5" points="865.9,387.7 869.5,367.9 886,356.4 905.8,360 917.3,376.5 913.7,396.3 897.2,407.8 877.4,404.3 
							"/>
			<polygon fill="#4A5164" points="878,385.1 879.9,374.6 888.6,368.6 899.1,370.5 905.1,379.2 903.3,389.6 894.5,395.7 
				884.1,393.8 			"/>
			<polygon fill="#A7A9AA" points="905.8,360 899.1,370.5 905.1,379.2 917.3,376.5 			"/>
			<polygon fill="#989A9B" points="903.3,389.6 913.7,396.3 897.2,407.8 894.5,395.7 			"/>
			<polygon fill="#C4C4C5" points="879.9,374.6 869.5,367.9 865.9,387.7 878,385.1 			"/>
			<polygon fill="#7F8082" points="884.1,393.8 877.4,404.3 897.2,407.8 894.5,395.7 			"/>
			<polygon fill="#ADAEB0" points="888.6,368.6 899.1,370.5 905.8,360 886,356.4 			"/>
		</g>
	</g>
	<ellipse fill="#9A371B" cx="192" cy="762.8" rx="155.7" ry="38"/>
	<ellipse fill="#9A371B" cx="1253.7" cy="781.8" rx="89.4" ry="19"/>
	<ellipse fill="#9A371B" cx="897" cy="849.9" rx="136" ry="26.9"/>
	<ellipse fill="#9A371B" cx="959.8" cy="766.1" rx="68.2" ry="13.7"/>
	<ellipse fill="#9A371B" cx="1330.9" cy="860.8" rx="63.4" ry="11"/>
	<ellipse fill="#9A371B" cx="643.5" cy="716.2" rx="56.5" ry="8.6"/>
	<g>
		<path fill="#828486" d="M508.9,200.1H332.7c-23.4,0-42.3,18.9-42.3,42.3v251.9c0,17.5,14.1,31.6,31.6,31.6h197.5
			c17.5,0,31.6-14.1,31.6-31.6V242.4C551.1,219,532.2,200.1,508.9,200.1z"/>
		<path fill="#A5A7A8" d="M317.1,863.1c0,0-14.6,7.8-16.1,46.5c-0.3,6.3,4.8,11.5,11,11.5h92.4c6.1,0,11-4.9,11-10.9
			c0.1-10.4-1.7-27.5-11.4-47H317.1z"/>
		<path fill="#A5A7A8" d="M524.5,863.1c0,0,14.6,7.8,16.1,46.5c0.3,6.3-4.8,11.5-11,11.5h-92.4c-6.1,0-11-4.9-11-10.9
			c-0.1-10.4,1.7-27.5,11.4-47H524.5z"/>
		<path fill="#DBD9DC" d="M544.2,338.3c-12.1-25.4-37.7-41.6-65.8-41.6H317.1h-55.5c-15.2,0-28.5-10-32.7-24.5l-22.9-78.6
			l-67.6,16.9l25.6,114.6c6.6,23.1,25.9,40.4,49.6,44.4L317.1,387v476.2H404V631.4c0-9.2,7.2-16.9,16.3-17.1
			c9.5-0.3,17.3,7.4,17.3,16.8v232.1h86.9V463.7l53.3,106.6l61.4-32.2L544.2,338.3z"/>
		<path fill="#E9E8DB" d="M478.4,296.7H317.1V387v141.4h207.4v-64.6V313.1C511.7,302.7,495.5,296.7,478.4,296.7z"/>
		<rect x="332" y="296.7" fill="#A5A7A8" width="21.7" height="170.9"/>
		<rect x="486.1" y="296.7" fill="#A5A7A8" width="21.7" height="170.9"/>
		<path fill="#A5A7A8" d="M577.8,570.4l-8.1,42c0,6.8,4.1,12.9,10.5,15.4h0c8.8,3.5,18.7-1.1,21.7-10.1l2.6-7.6l10.4,13.5l-1.9,8.2
			c-2.7,11.6,5.2,22.9,16.9,24.5l0,0c10,1.3,19.4-4.9,22-14.6l11.6-42.6l-24.3-60.8L577.8,570.4z"/>
		<path fill="#A5A7A8" d="M205.9,193.6l20.8-57.9c3.3-9.1-1.1-19.3-10-23.1l0,0c-6.6-2.9-14.2-1.6-19.6,3.1l-12,10.7l-2.5-11.5
			c-3.7-17.1-20.9-27.7-37.8-23.3l-6,1.5c-16.6,4.3-26.5,21.3-22,37.9l21.6,79.5L205.9,193.6z"/>
		<rect x="317.1" y="528.4" fill="#A5A7A8" width="207.4" height="35.9"/>
		<rect x="317.1" y="468.6" fill="#A5A7A8" width="207.4" height="35.9"/>
		<path fill="#F6F6F6" d="M420.8,275h-93.4v16.5c0,6.6,3,12.8,8.1,16.9c12.1,9.7,38.7,25,85.3,25c46.5,0,73.1-15.3,85.3-25
			c5.1-4.1,8.1-10.3,8.1-16.9V275H420.8z"/>
		<path fill="#DBD9DC" d="M528.9,180.5H312.7c-8.6,0-15.6,7-15.6,15.6v28.7c0,8.6,7,15.6,15.6,15.6h216.2c8.6,0,15.6-7,15.6-15.6
			v-28.7C544.6,187.5,537.6,180.5,528.9,180.5z"/>
		<circle fill="#FFFFFF" cx="420.8" cy="210.5" r="113.5"/>
		<ellipse fill="#1A3E47" cx="420.8" cy="210.5" rx="88.8" ry="90.2"/>
		<g>
			<path fill="#204C56" d="M360.3,144.5c-7.6,7.2-13.9,15.7-18.7,25.1l109,125.8c9.9-3.6,19-8.9,26.9-15.6L360.3,144.5z"/>
			<path fill="#204C56" d="M378.1,131.4c-4.8,2.7-9.3,5.8-13.5,9.3L481.8,276c3.9-3.8,7.5-7.9,10.8-12.4L378.1,131.4z"/>
		</g>
		<g>
			<path fill="#A1DBE6" d="M463.1,279.8c-1.8,0-3.5-0.8-4.6-2.4c-1.7-2.5-1.1-6,1.4-7.8c11.9-8.2,21-19.7,26.2-33.3
				c1.1-2.9,4.3-4.3,7.2-3.2c2.9,1.1,4.3,4.3,3.2,7.2c-6,15.7-16.5,29.1-30.3,38.6C465.3,279.5,464.2,279.8,463.1,279.8z"/>
		</g>
		<g>
			<path fill="#A1DBE6" d="M496.4,216.1c-3.1,0-5.6-2.5-5.6-5.6c0-39.3-31.4-71.2-70-71.2c-3.1,0-5.6-2.5-5.6-5.6s2.5-5.6,5.6-5.6
				c44.8,0,81.2,37,81.2,82.4C502,213.6,499.5,216.1,496.4,216.1z"/>
		</g>
		<g>
			<rect x="317.1" y="649.7" fill="#E9E8DB" width="86.9" height="150.2"/>
			<rect x="437.6" y="649.7" fill="#E9E8DB" width="86.9" height="150.2"/>
		</g>
		<g>
			<rect x="317.1" y="670.5" fill="#A5A7A8" width="86.9" height="78.3"/>
			<rect x="437.6" y="670.5" fill="#A5A7A8" width="86.9" height="78.3"/>
		</g>
		<path fill="#A5A7A8" d="M464.4,349.3h-87.3c-6.2,0-11.3,5.1-11.3,11.3v32.7c0,6.2,5.1,11.3,11.3,11.3h87.3
			c6.2,0,11.3-5.1,11.3-11.3v-32.7C475.8,354.4,470.7,349.3,464.4,349.3z"/>
		<path fill="#A5A7A8" d="M254.6,296c-10.3-2.2-19-9-23.7-18.5l0,0l-65.6,52c7.7,20.9,26,36.3,48.2,40l11.1,1.9L254.6,296z"/>
		<polygon fill="#A5A7A8" points="524.5,468.6 583.1,420.1 605.4,467.1 539.9,494.5 		"/>
	</g>
	<g>
		<path fill="#CDCCCC" d="M991.7,661.5c0-0.6,0-1.2,0-1.8c0-49.1-41-88.9-91.5-88.9s-91.5,39.8-91.5,88.9c0,0.6,0,1.2,0.1,1.8H991.7
			z"/>
		<path fill="#A0A1A1" d="M826.5,606.9h147.3c-1.9-2.6-4-5-6.2-7.3H832.8C830.6,601.9,828.5,604.4,826.5,606.9z"/>
		<path fill="#808182" d="M917.1,661.5v-29.1c0-9.3-7.6-16.9-16.9-16.9s-16.9,7.6-16.9,16.9v29.1H917.1z"/>
		<path fill="#A0A1A1" d="M900.2,621c-7.4,0-13.3,6-13.3,13.3v27.2h26.6v-27.2C913.5,626.9,907.6,621,900.2,621z"/>
		<rect x="808.7" y="661.5" fill="#808182" width="183" height="8.9"/>
	</g>
	<g>
		<path fill="#CDCCCC" d="M1191.6,661.5c0-0.6,0-1.2,0-1.8c0-49.1-41-88.9-91.5-88.9c-50.5,0-91.5,39.8-91.5,88.9
			c0,0.6,0,1.2,0.1,1.8H1191.6z"/>
		<path fill="#A0A1A1" d="M1026.4,606.9h147.3c-1.9-2.6-4-5-6.2-7.3h-134.9C1030.4,601.9,1028.3,604.4,1026.4,606.9z"/>
		<path fill="#808182" d="M1117,661.5v-29.1c0-9.3-7.6-16.9-16.9-16.9s-16.9,7.6-16.9,16.9v29.1H1117z"/>
		<path fill="#A0A1A1" d="M1100.1,621c-7.4,0-13.3,6-13.3,13.3v27.2h26.6v-27.2C1113.4,626.9,1107.4,621,1100.1,621z"/>
		<rect x="1008.6" y="661.5" fill="#808182" width="183" height="8.9"/>
	</g>
	<g>
		<path fill="#CDCCCC" d="M1391.4,661.5c0-0.6,0-1.2,0-1.8c0-49.1-41-88.9-91.5-88.9s-91.5,39.8-91.5,88.9c0,0.6,0,1.2,0.1,1.8
			H1391.4z"/>
		<path fill="#A0A1A1" d="M1226.3,606.9h147.3c-1.9-2.6-4-5-6.2-7.3h-134.9C1230.3,601.9,1228.2,604.4,1226.3,606.9z"/>
		<path fill="#808182" d="M1316.9,661.5v-29.1c0-9.3-7.6-16.9-16.9-16.9s-16.9,7.6-16.9,16.9v29.1H1316.9z"/>
		<path fill="#A0A1A1" d="M1299.9,621c-7.4,0-13.3,6-13.3,13.3v27.2h26.6v-27.2C1313.3,626.9,1307.3,621,1299.9,621z"/>
		<rect x="1208.5" y="661.5" fill="#808182" width="183" height="8.9"/>
	</g>
	<circle fill="#FFFFFF" cx="42.3" cy="64.2" r="5"/>
	<circle fill="#FFFFFF" cx="185.3" cy="72.8" r="3.5"/>
	<circle fill="#FFFFFF" cx="121.2" cy="47.3" r="5.5"/>
	<circle fill="#FFFFFF" cx="230.8" cy="33.8" r="3"/>
	<circle fill="#FFFFFF" cx="314.9" cy="25.9" r="2.2"/>
	<circle fill="#FFFFFF" cx="392.8" cy="9.3" r="4"/>
	<circle fill="#FFFFFF" cx="434.8" cy="25.8" r="2"/>
	<circle fill="#FFFFFF" cx="472.3" cy="40.2" r="3.5"/>
	<circle fill="#FFFFFF" cx="519.3" cy="94.8" r="5.2"/>
	<circle fill="#FFFFFF" cx="252.2" cy="158.1" r="2.4"/>
	<circle fill="#FFFFFF" cx="276.8" cy="127.3" r="3"/>
	<circle fill="#FFFFFF" cx="313.9" cy="107.1" r="1.1"/>
	<circle fill="#FFFFFF" cx="39.5" cy="155.3" r="2.8"/>
	<ellipse fill="#FFFFFF" cx="13.8" cy="23.8" rx="2" ry="0"/>
	<circle fill="#FFFFFF" cx="591.3" cy="126.7" r="2.4"/>
	<circle fill="#FFFFFF" cx="670.9" cy="313.1" r="1.6"/>
	<circle fill="#FFFFFF" cx="882.6" cy="182.3" r="3.9"/>
	<circle fill="#FFFFFF" cx="875.2" cy="225.4" r="2.3"/>
	<circle fill="#FFFFFF" cx="937.3" cy="149.8" r="4"/>
	<circle fill="#FFFFFF" cx="1036.6" cy="50.1" r="2.8"/>
	<circle fill="#FFFFFF" cx="1084.4" cy="27.3" r="3.5"/>
	<circle fill="#FFFFFF" cx="1067.9" cy="97.6" r="3"/>
	<circle fill="#FFFFFF" cx="772.7" cy="48.7" r="1.4"/>
	<circle fill="#FFFFFF" cx="634.7" cy="112" r="1.1"/>
	<circle fill="#FFFFFF" cx="174.2" cy="407.1" r="2.4"/>
	<circle fill="#FFFFFF" cx="220.3" cy="428.8" r="3.5"/>
	<circle fill="#FFFFFF" cx="143" cy="493.8" r="4.7"/>
	<circle fill="#FFFFFF" cx="19.3" cy="333.1" r="3.5"/>
	<circle fill="#FFFFFF" cx="59.8" cy="253.3" r="2"/>
	<circle fill="#FFFFFF" cx="1129.5" cy="282.8" r="3"/>
	<circle fill="#FFFFFF" cx="1147.2" cy="269.5" r="3.3"/>
	<circle fill="#FFFFFF" cx="1181" cy="249.7" r="3.4"/>
	<circle fill="#FFFFFF" cx="1186.9" cy="277.5" r="2.5"/>
	<circle fill="#FFFFFF" cx="1293.7" cy="259.3" r="2.2"/>
	<circle fill="#FFFFFF" cx="1309" cy="203.9" r="5.1"/>
	<circle fill="#FFFFFF" cx="1326.6" cy="163.8" r="4.3"/>
	<circle fill="#FFFFFF" cx="1335.4" cy="59.1" r="4.5"/>
	<circle fill="#FFFFFF" cx="1366.4" cy="119.4" r="3.5"/>
	<circle fill="#FFFFFF" cx="1364.6" cy="284.5" r="1.8"/>
	<circle fill="#FFFFFF" cx="1362.1" cy="329.9" r="4.3"/>
	<circle fill="#FFFFFF" cx="1086.1" cy="398" r="1.8"/>
	<circle fill="#FFFFFF" cx="1002.1" cy="499.5" r="5"/>
	<circle fill="#FFFFFF" cx="806.2" cy="461.3" r="2.2"/>
	<circle fill="#FFFFFF" cx="646" cy="442.1" r="3.1"/>
	<circle fill="#FFFFFF" cx="711.4" cy="392.7" r="3.5"/>
	<circle fill="#FFFFFF" cx="587.5" cy="368.6" r="2.7"/>
	<circle fill="#FFFFFF" cx="769.4" cy="220.1" r="1.9"/>
	<circle fill="#FFFFFF" cx="628.3" cy="42" r="1.7"/>
	<circle fill="#FFFFFF" cx="248.7" cy="533.3" r="4.9"/>
	<path fill="#D85539" d="M886.8,782c20,12,47.7,12.1,69.9,15.9c14.7,2.5,29.7,5,44.4,3.1c26.2-3.4,49.9-20.5,76.3-19.6
		c31.5,1.1,57.5,27.6,88.9,30.6c16.9,1.6,33.5-3.7,50.2-6.7c20.5-3.6,41.4-3.7,62.1-3.7c23.9,0,48.1-0.1,71.5,4.7
		c-17.1,1.8-34.3,3.7-51.4,5.5c-27.5,2.9-55.2,5.9-81.7,13.9c-27,8.1-54.2,21.5-81.9,16.4c-19-3.5-35.3-15.3-53.6-21.4
		c-18.1-6-37.6-6.3-56.6-6.5c-29.8-0.3-59.6-0.6-89.4-0.9c-24.9-0.2-56.7,3.6-79.7-7.4c-3.5-1.7-6.7-3.7-10.3-5.2
		c-15.3-6.4-32.8-1.6-48.5,3.7c-13.1,4.4-26.9,9.3-40.9,8c-12.8-1.2-25.7-1.1-38.6-1.3c-3.6,0-7.5-0.1-10.5-2.1
		c-6.6-4.4-4.8-15.5,1.6-20.1s15-4.4,22.9-3.2s15.8,3.2,23.5,1.5c4.5-1,8.6-3.2,12.6-5.2c15.9-8,33.6-11,50.9-14.1
		c16.5-3,30.3-1.3,47,1.1c7.2,1.1,9.3,4,15.2,8.8C882.5,779.2,884.6,780.7,886.8,782z"/>
</g>
</svg>
