<?xml version="1.0" encoding="utf-8"?>
<!-- Generator: Adobe Illustrator 20.1.0, SVG Export Plug-In . SVG Version: 6.00 Build 0)  -->
<svg version="1.0" id="Layer_1" xmlns="http://www.w3.org/2000/svg" xmlns:xlink="http://www.w3.org/1999/xlink" x="0px" y="0px"
	 width="1400px" height="980px" viewBox="0 0 1400 980" enable-background="new 0 0 1400 980" xml:space="preserve">
<rect fill="#FFB92D" width="350" height="490"/>
<rect x="350" fill="#FF7F47" width="350" height="490"/>
<rect x="700" fill="#FF956B" width="350" height="490"/>
<rect x="1050" fill="#8CDAFF" width="350" height="490"/>
<rect x="1050" y="490" transform="matrix(-1 -1.224647e-16 1.224647e-16 -1 2450 1470)" fill="#FFB92D" width="350" height="490"/>
<rect x="700" y="490" transform="matrix(-1 -1.224647e-16 1.224647e-16 -1 1750 1470)" fill="#FF7F47" width="350" height="490"/>
<rect x="350" y="490" transform="matrix(-1 -1.224647e-16 1.224647e-16 -1 1050 1470)" fill="#FF956B" width="350" height="490"/>
<rect y="490" transform="matrix(-1 -1.224647e-16 1.224647e-16 -1 350 1470)" fill="#8CDAFF" width="350" height="490"/>
<g>
	<circle fill="#F9C25C" cx="865.5" cy="171.9" r="21.8"/>
	<circle fill="#F9C25C" cx="865.5" cy="351.1" r="21.8"/>
	<ellipse transform="matrix(0.5 -0.866 0.866 0.5 206.2909 790.6942)" fill="#F9C25C" cx="787.9" cy="216.7" rx="21.8" ry="21.8"/>
	<ellipse transform="matrix(0.5 -0.866 0.866 0.5 206.2897 969.9131)" fill="#F9C25C" cx="943.1" cy="306.3" rx="21.8" ry="21.8"/>
	<ellipse transform="matrix(0.866 -0.5 0.5 0.866 -47.5928 434.9896)" fill="#F9C25C" cx="787.9" cy="306.3" rx="21.8" ry="21.8"/>
	<ellipse transform="matrix(0.866 -0.5 0.5 0.866 18.0069 500.5906)" fill="#F9C25C" cx="943.1" cy="216.7" rx="21.8" ry="21.8"/>
	<g>
		<path fill="#75B7E5" d="M865.5,357.5c-52.9,0-96-43.1-96-96c0-52.9,43.1-96,96-96c52.9,0,96,43.1,96,96
			C961.5,314.4,918.4,357.5,865.5,357.5z M865.5,178.2c-45.9,0-83.3,37.3-83.3,83.3s37.3,83.3,83.3,83.3c45.9,0,83.3-37.3,83.3-83.3
			S911.4,178.2,865.5,178.2z"/>
	</g>
</g>
<g>
	<rect x="433.8" y="146.2" fill="#504B64" width="197.5" height="197.5"/>
	<rect x="433.8" y="146.2" fill="#312E3D" width="13" height="197.5"/>
	<path fill="#FFFFFF" d="M539.6,167.2c-42.9,0-77.8,34.8-77.8,77.8s34.8,77.8,77.8,77.8s77.8-34.8,77.8-77.8
		S582.6,167.2,539.6,167.2z M539.6,258.3c-7.3,0-13.3-5.9-13.3-13.3s5.9-13.3,13.3-13.3c7.3,0,13.3,5.9,13.3,13.3
		S546.9,258.3,539.6,258.3z"/>
	<g>
		<path fill="#DEDEDE" d="M548.7,225.7c5.3,2.5,9.1,6.9,11,12.1l45.6-16.4c-6-16.8-18.5-31.3-35.9-39.5c-17.4-8.2-36.5-8.6-53.3-2.5
			l16.4,45.6C537.5,223.1,543.4,223.2,548.7,225.7z"/>
		<path fill="#DEDEDE" d="M509.9,308.1c17.4,8.2,36.5,8.6,53.3,2.5L546.8,265c-5.1,1.8-11,1.7-16.3-0.8c-5.3-2.5-9.1-6.9-10.9-12.1
			L474,268.6C480,285.4,492.5,299.9,509.9,308.1z"/>
	</g>
</g>
<g>
	<g>
		<path fill="#FFD58A" d="M108.9,859.6L108.9,859.6c-3.9,0-7.1-3.2-7.1-7.1v-102c0-3.9,3.2-7.1,7.1-7.1l0,0c3.9,0,7.1,3.2,7.1,7.1
			v102C116,856.4,112.8,859.6,108.9,859.6z"/>
		<path fill="#E6BF7C" d="M108.9,743.4c-1.3,0-2.5,0.3-3.5,1c2.1,1.2,3.5,3.5,3.5,6.1v102c0,2.6-1.4,4.9-3.5,6.1c1,0.6,2.2,1,3.5,1
			c3.9,0,7.1-3.2,7.1-7.1v-102C116,746.6,112.8,743.4,108.9,743.4z"/>
		<g>
			<circle fill="#FF5F18" cx="108.9" cy="718.2" r="48"/>
			<path fill="#FFA57D" d="M60.9,718.2c0,3.3,0.3,6.5,1,9.6H156c0.6-3.1,1-6.3,1-9.6c0-3.3-0.3-6.5-1-9.6H61.9
				C61.3,711.7,60.9,714.9,60.9,718.2z"/>
			<path fill="#FFA57D" d="M68.1,692.9h81.6c-2.2-3.5-4.7-6.6-7.7-9.4H75.8C72.9,686.3,70.3,689.4,68.1,692.9z"/>
			<path fill="#FFA57D" d="M68.1,743.4c2.2,3.5,4.7,6.6,7.7,9.4H142c2.9-2.8,5.5-6,7.7-9.4H68.1z"/>
			<path opacity="0.1" d="M118.9,671.2c9.6,11.6,15.7,28.3,15.7,46.9s-6,35.3-15.7,46.9c21.7-4.6,38-23.9,38-46.9
				C156.9,695.1,140.6,675.8,118.9,671.2z"/>
		</g>
	</g>
	<g>
		<path fill="#FFD58A" d="M225.7,859.6L225.7,859.6c-3.9,0-7.1-3.2-7.1-7.1v-102c0-3.9,3.2-7.1,7.1-7.1l0,0c3.9,0,7.1,3.2,7.1,7.1
			v102C232.7,856.4,229.6,859.6,225.7,859.6z"/>
		<path fill="#E6BF7C" d="M225.7,743.4c-1.3,0-2.5,0.3-3.5,1c2.1,1.2,3.5,3.5,3.5,6.1v102c0,2.6-1.4,4.9-3.5,6.1c1,0.6,2.2,1,3.5,1
			c3.9,0,7.1-3.2,7.1-7.1v-102C232.7,746.6,229.6,743.4,225.7,743.4z"/>
		<g>
			<circle fill="#FF5F18" cx="225.7" cy="718.2" r="48"/>
			<path fill="#FFA57D" d="M177.7,718.2c0,3.3,0.3,6.5,1,9.6h94.1c0.6-3.1,1-6.3,1-9.6c0-3.3-0.3-6.5-1-9.6h-94.1
				C178,711.7,177.7,714.9,177.7,718.2z"/>
			<path fill="#FFA57D" d="M184.9,692.9h81.6c-2.2-3.5-4.7-6.6-7.7-9.4h-66.2C189.6,686.3,187,689.4,184.9,692.9z"/>
			<path fill="#FFA57D" d="M184.9,743.4c2.2,3.5,4.7,6.6,7.7,9.4h66.2c2.9-2.8,5.5-6,7.7-9.4H184.9z"/>
			<path opacity="0.1" d="M235.7,671.2c9.6,11.6,15.7,28.3,15.7,46.9s-6,35.3-15.7,46.9c21.7-4.6,38-23.9,38-46.9
				C273.7,695.1,257.4,675.8,235.7,671.2z"/>
		</g>
	</g>
</g>
<g>
	<path fill="#6B593A" d="M234.5,390.5H112.5c-13.4,0-24.3-10.9-24.3-24.3V123.8c0-13.4,10.9-24.3,24.3-24.3h122.1
		c13.4,0,24.3,10.9,24.3,24.3v242.4C258.9,379.6,248,390.5,234.5,390.5z"/>
	<path fill="#4A3D28" d="M90,114.5h167c-3.7-8.8-12.3-15-22.5-15H112.5C102.3,99.5,93.6,105.7,90,114.5z"/>
	<path fill="#4A3D28" d="M88.1,341v25.2c0,13.4,10.9,24.3,24.3,24.3h122.1c13.4,0,24.3-10.9,24.3-24.3V341H88.1z"/>
	<path fill="#403522" d="M234.5,372.4H112.5c-13.4,0-24.3-10.9-24.3-24.3v18.1c0,13.4,10.9,24.3,24.3,24.3h122.1
		c13.4,0,24.3-10.9,24.3-24.3V348C258.9,361.5,248,372.4,234.5,372.4z"/>
	<circle fill="#7D7D7D" cx="173.5" cy="261.5" r="61.4"/>
	<circle fill="#ABABAB" cx="173.5" cy="261.5" r="55.9"/>
	<path fill="#A1A1A1" d="M173.5,205.6c-2.8,0-5.6,0.2-8.2,0.6c26.9,4,47.6,27.2,47.6,55.3c0,28.1-20.7,51.3-47.6,55.3
		c2.7,0.4,5.4,0.6,8.2,0.6c30.9,0,55.9-25,55.9-55.9C229.4,230.6,204.4,205.6,173.5,205.6z"/>
	<circle fill="#787878" cx="173.5" cy="261.5" r="16.5"/>
	<circle fill="#ABABAB" cx="173.5" cy="159.8" r="26.4"/>
	<path fill="#A1A1A1" d="M173.5,133.4c-2.3,0-4.6,0.3-6.8,0.9c11.3,3,19.6,13.3,19.6,25.5c0,12.2-8.3,22.5-19.6,25.5
		c2.2,0.6,4.4,0.9,6.8,0.9c14.6,0,26.4-11.8,26.4-26.4C199.9,145.2,188.1,133.4,173.5,133.4z"/>
	<circle fill="#787878" cx="173.5" cy="159.8" r="13.5"/>
</g>
<path fill="#D6D6D6" d="M979.1,810l-70.8-122.6c-3.4-6-9.2-9.9-15.7-11.1v-45.4c0-2.9-2.4-5.3-5.3-5.3c-2.9,0-5.3,2.4-5.3,5.3v46
	c-5.6,1.6-10.3,5.3-13.4,10.5L797.9,810c-4.1,7.2-4.1,15.7,0,22.9c4.1,7.2,11.5,11.4,19.8,11.4h141.6c2.9,0,5.3-2.4,5.3-5.3
	c0-2.9-2.4-5.3-5.3-5.3H817.7c-4.5,0-8.5-2.3-10.7-6.2c-2.2-3.9-2.2-8.5,0-12.3l70.8-122.6c2.2-3.9,6.2-6.2,10.7-6.2
	c4.5,0,8.5,2.3,10.7,6.2L970,815.3c1.5,2.5,4.7,3.4,7.2,1.9C979.7,815.8,980.5,812.6,979.1,810z"/>
<g>
	<circle fill="#A1A1A1" cx="518.6" cy="679.4" r="44.4"/>
	<path fill="#8F8F8F" d="M518.6,635c-3,0-5.9,0.3-8.7,0.9c20.4,4,35.7,22,35.7,43.5c0,21.5-15.4,39.5-35.7,43.5
		c2.8,0.6,5.7,0.9,8.7,0.9c24.5,0,44.4-19.9,44.4-44.4S543.1,635,518.6,635z"/>
	<path fill="#616161" d="M527.2,870.8H510c-5.1,0-9.4-3.9-9.9-9l-13.8-151h64.5l-13.8,151C536.6,866.9,532.3,870.8,527.2,870.8z"/>
	<path fill="#4F4F4F" d="M530.2,710.8l-14.6,160h11.6c5.1,0,9.4-3.9,9.9-9l13.8-151H530.2z"/>
	<path fill="#616161" d="M569.7,685.1H467.4c-3.1,0-5.7-2.5-5.7-5.7v0c0-3.1,2.5-5.7,5.7-5.7h102.3c3.1,0,5.7,2.5,5.7,5.7v0
		C575.4,682.5,572.9,685.1,569.7,685.1z"/>
	<path fill="#575757" d="M569.7,673.7h-39c3.1,0,5.7,2.5,5.7,5.7c0,3.1-2.5,5.7-5.7,5.7h39c3.1,0,5.7-2.5,5.7-5.7
		C575.4,676.2,572.9,673.7,569.7,673.7z"/>
</g>
<g>
	<g>
		<path fill="#AD4010" d="M1348.2,783.9h-16.6v-50.7c0-54.5-44.4-98.9-98.9-98.9c-54.5,0-98.9,44.4-98.9,98.9v50.7h-16.6v-50.7
			c0-63.7,51.8-115.5,115.5-115.5s115.5,51.8,115.5,115.5V783.9z"/>
	</g>
	<g>
		<g>
			<g>
				<path fill="#EB5716" d="M1116.8,824.4L1116.8,824.4c-6.2,0-11.2-5-11.2-11.2v-47.1c0-6.2,5-11.2,11.2-11.2l0,0
					c6.2,0,11.2,5,11.2,11.2v47.1C1128,819.4,1123,824.4,1116.8,824.4z"/>
			</g>
			<g>
				<path fill="#FF5F18" d="M1135.8,852.3L1135.8,852.3c-11.1,0-20.1-9-20.1-20.1v-84.9c0-11.1,9-20.1,20.1-20.1l0,0
					c11.1,0,20.1,9,20.1,20.1v84.9C1155.9,843.3,1146.9,852.3,1135.8,852.3z"/>
			</g>
		</g>
		<g>
			<g>
				<path fill="#EB5716" d="M1348.1,824.4L1348.1,824.4c6.2,0,11.2-5,11.2-11.2v-47.1c0-6.2-5-11.2-11.2-11.2l0,0
					c-6.2,0-11.2,5-11.2,11.2v47.1C1336.9,819.4,1341.9,824.4,1348.1,824.4z"/>
			</g>
			<g>
				<path fill="#FF5F18" d="M1329.1,852.3L1329.1,852.3c11.1,0,20.1-9,20.1-20.1v-84.9c0-11.1-9-20.1-20.1-20.1l0,0
					c-11.1,0-20.1,9-20.1,20.1v84.9C1309,843.3,1318,852.3,1329.1,852.3z"/>
			</g>
		</g>
	</g>
</g>
<g>
	<rect x="1090.6" y="214.1" fill="#A87A1E" width="283.5" height="9.7"/>
	<path fill="#FFB92D" d="M1349.7,318.9L1349.7,318.9c-2.9,0-5.2-2.3-5.2-5.2v-89.8h10.4v89.8
		C1354.9,316.5,1352.5,318.9,1349.7,318.9z"/>
	<path fill="#FFB92D" d="M1333.2,313.5L1333.2,313.5c-2.9,0-5.2-2.3-5.2-5.2v-84.4h10.4v84.4
		C1338.5,311.1,1336.1,313.5,1333.2,313.5z"/>
	<path fill="#FFB92D" d="M1316.8,308.1L1316.8,308.1c-2.9,0-5.2-2.3-5.2-5.2v-79h10.4v79C1322,305.7,1319.7,308.1,1316.8,308.1z"/>
	<path fill="#FFB92D" d="M1300.4,302.7L1300.4,302.7c-2.9,0-5.2-2.3-5.2-5.2v-73.6h10.4v73.6
		C1305.6,300.3,1303.3,302.7,1300.4,302.7z"/>
	<path fill="#FFB92D" d="M1284,297.3L1284,297.3c-2.9,0-5.2-2.3-5.2-5.2v-68.2h10.4v68.2C1289.2,294.9,1286.8,297.3,1284,297.3z"/>
	<path fill="#FFB92D" d="M1267.5,291.9L1267.5,291.9c-2.9,0-5.2-2.3-5.2-5.2v-62.8h10.4v62.8
		C1272.8,289.5,1270.4,291.9,1267.5,291.9z"/>
	<path fill="#FFB92D" d="M1251.1,286.5L1251.1,286.5c-2.9,0-5.2-2.3-5.2-5.2v-57.4h10.4v57.4C1256.3,284.1,1254,286.5,1251.1,286.5z
		"/>
	<path fill="#FFB92D" d="M1234.7,281.1L1234.7,281.1c-2.9,0-5.2-2.3-5.2-5.2v-52h10.4v52C1239.9,278.7,1237.6,281.1,1234.7,281.1z"
		/>
	<path fill="#FFB92D" d="M1218.3,275.7L1218.3,275.7c-2.9,0-5.2-2.3-5.2-5.2v-46.6h10.4v46.6
		C1223.5,273.3,1221.1,275.7,1218.3,275.7z"/>
	<path fill="#FFB92D" d="M1201.8,270.3L1201.8,270.3c-2.9,0-5.2-2.3-5.2-5.2v-41.2h10.4v41.2
		C1207.1,267.9,1204.7,270.3,1201.8,270.3z"/>
	<path fill="#FFB92D" d="M1185.4,264.9L1185.4,264.9c-2.9,0-5.2-2.3-5.2-5.2v-35.8h10.4v35.8
		C1190.6,262.5,1188.3,264.9,1185.4,264.9z"/>
	<path fill="#FFB92D" d="M1169,259.5L1169,259.5c-2.9,0-5.2-2.3-5.2-5.2v-30.4h10.4v30.4C1174.2,257.2,1171.9,259.5,1169,259.5z"/>
	<path fill="#FFB92D" d="M1152.6,254.1L1152.6,254.1c-2.9,0-5.2-2.3-5.2-5.2v-25h10.4v25C1157.8,251.8,1155.4,254.1,1152.6,254.1z"
		/>
	<path fill="#FFB92D" d="M1136.1,248.7L1136.1,248.7c-2.9,0-5.2-2.3-5.2-5.2v-19.6h10.4v19.6C1141.4,246.4,1139,248.7,1136.1,248.7z
		"/>
	<path fill="#FFB92D" d="M1119.7,243.3L1119.7,243.3c-2.9,0-5.2-2.3-5.2-5.2v-14.2h10.4v14.2C1124.9,241,1122.6,243.3,1119.7,243.3z
		"/>
	<g>
		<rect x="1095.5" y="219" fill="#A87A1E" width="8.9" height="124.2"/>
		<rect x="1359.1" y="219" fill="#A87A1E" width="8.9" height="124.2"/>
	</g>
</g>
</svg>
